<mxfile host="app.diagrams.net" agent="Mozilla/5.0 (Macintosh; Intel Mac OS X 10_15_7) AppleWebKit/605.1.15 (KHTML, like Gecko) Version/18.3 Safari/605.1.15" version="26.0.13">
  <diagram name="Page-1" id="5MqjxUeLmsRFRtrz50fC">
    <mxGraphModel dx="1746" dy="698" grid="0" gridSize="10" guides="1" tooltips="1" connect="1" arrows="1" fold="1" page="1" pageScale="1" pageWidth="850" pageHeight="1100" math="0" shadow="0" adaptiveColors="simple">
      <root>
        <mxCell id="0" />
        <mxCell id="1" parent="0" />
        <mxCell id="PVTimHk4dlKojtGtphxi-6" value="" style="group" vertex="1" connectable="0" parent="1">
          <mxGeometry x="-682" y="299" width="131" height="39" as="geometry" />
        </mxCell>
        <mxCell id="PVTimHk4dlKojtGtphxi-2" value="" style="strokeWidth=2;html=1;shape=mxgraph.flowchart.annotation_1;align=left;pointerEvents=1;" vertex="1" parent="PVTimHk4dlKojtGtphxi-6">
          <mxGeometry width="131" height="39" as="geometry" />
        </mxCell>
        <mxCell id="PVTimHk4dlKojtGtphxi-3" style="edgeStyle=orthogonalEdgeStyle;rounded=0;orthogonalLoop=1;jettySize=auto;html=1;exitX=0.5;exitY=1;exitDx=0;exitDy=0;exitPerimeter=0;" edge="1" parent="PVTimHk4dlKojtGtphxi-6" source="PVTimHk4dlKojtGtphxi-2" target="PVTimHk4dlKojtGtphxi-2">
          <mxGeometry relative="1" as="geometry" />
        </mxCell>
        <mxCell id="PVTimHk4dlKojtGtphxi-5" value="Game Data&amp;nbsp;" style="strokeWidth=2;html=1;shape=mxgraph.flowchart.annotation_1;align=left;pointerEvents=1;" vertex="1" parent="PVTimHk4dlKojtGtphxi-6">
          <mxGeometry x="31" width="50" height="39" as="geometry" />
        </mxCell>
        <mxCell id="PVTimHk4dlKojtGtphxi-9" value="" style="group;fillColor=#FFE599;" vertex="1" connectable="0" parent="1">
          <mxGeometry x="-820" y="175" width="120" height="72" as="geometry" />
        </mxCell>
        <mxCell id="PVTimHk4dlKojtGtphxi-7" value="Display Main Menu" style="rounded=1;whiteSpace=wrap;html=1;fillColor=#FFE599;" vertex="1" parent="PVTimHk4dlKojtGtphxi-9">
          <mxGeometry width="120" height="72" as="geometry" />
        </mxCell>
        <mxCell id="PVTimHk4dlKojtGtphxi-8" value="" style="endArrow=none;html=1;rounded=0;exitX=-0.006;exitY=0.343;exitDx=0;exitDy=0;exitPerimeter=0;entryX=1;entryY=0.347;entryDx=0;entryDy=0;entryPerimeter=0;fillColor=#FFE599;" edge="1" parent="PVTimHk4dlKojtGtphxi-9" source="PVTimHk4dlKojtGtphxi-7" target="PVTimHk4dlKojtGtphxi-7">
          <mxGeometry width="50" height="50" relative="1" as="geometry">
            <mxPoint x="156" y="45.6" as="sourcePoint" />
            <mxPoint x="121" y="24" as="targetPoint" />
          </mxGeometry>
        </mxCell>
        <mxCell id="PVTimHk4dlKojtGtphxi-11" value="7.1" style="text;html=1;align=center;verticalAlign=middle;whiteSpace=wrap;rounded=0;fillColor=#FFE599;" vertex="1" parent="PVTimHk4dlKojtGtphxi-9">
          <mxGeometry x="26" y="2" width="60" height="22" as="geometry" />
        </mxCell>
        <mxCell id="PVTimHk4dlKojtGtphxi-37" style="edgeStyle=orthogonalEdgeStyle;rounded=0;orthogonalLoop=1;jettySize=auto;html=1;exitX=0.5;exitY=1;exitDx=0;exitDy=0;" edge="1" parent="1" source="PVTimHk4dlKojtGtphxi-10" target="PVTimHk4dlKojtGtphxi-11">
          <mxGeometry relative="1" as="geometry" />
        </mxCell>
        <mxCell id="PVTimHk4dlKojtGtphxi-38" value="Game Loads" style="edgeLabel;html=1;align=center;verticalAlign=middle;resizable=0;points=[];" vertex="1" connectable="0" parent="PVTimHk4dlKojtGtphxi-37">
          <mxGeometry x="-0.1979" y="-1" relative="1" as="geometry">
            <mxPoint as="offset" />
          </mxGeometry>
        </mxCell>
        <mxCell id="PVTimHk4dlKojtGtphxi-10" value="Player" style="rounded=0;whiteSpace=wrap;html=1;fillColor=light-dark(#FFFFFF,var(--ge-dark-color, #121212));" vertex="1" parent="1">
          <mxGeometry x="-805.5" y="53" width="83" height="60" as="geometry" />
        </mxCell>
        <mxCell id="PVTimHk4dlKojtGtphxi-21" value="" style="group" vertex="1" connectable="0" parent="1">
          <mxGeometry x="-531" y="338" width="133" height="133" as="geometry" />
        </mxCell>
        <mxCell id="PVTimHk4dlKojtGtphxi-67" value="" style="group" vertex="1" connectable="0" parent="PVTimHk4dlKojtGtphxi-21">
          <mxGeometry x="13" y="58" width="120" height="75" as="geometry" />
        </mxCell>
        <mxCell id="PVTimHk4dlKojtGtphxi-22" value="Display Pause Menu" style="rounded=1;whiteSpace=wrap;html=1;" vertex="1" parent="PVTimHk4dlKojtGtphxi-67">
          <mxGeometry y="3" width="120" height="72" as="geometry" />
        </mxCell>
        <mxCell id="PVTimHk4dlKojtGtphxi-23" value="" style="endArrow=none;html=1;rounded=0;exitX=-0.006;exitY=0.343;exitDx=0;exitDy=0;exitPerimeter=0;entryX=1;entryY=0.347;entryDx=0;entryDy=0;entryPerimeter=0;" edge="1" parent="PVTimHk4dlKojtGtphxi-67" source="PVTimHk4dlKojtGtphxi-22" target="PVTimHk4dlKojtGtphxi-22">
          <mxGeometry width="50" height="50" relative="1" as="geometry">
            <mxPoint x="204" y="-250.39999999999998" as="sourcePoint" />
            <mxPoint x="169" y="-272" as="targetPoint" />
          </mxGeometry>
        </mxCell>
        <mxCell id="PVTimHk4dlKojtGtphxi-24" value="7.3" style="text;html=1;align=center;verticalAlign=middle;whiteSpace=wrap;rounded=0;" vertex="1" parent="PVTimHk4dlKojtGtphxi-67">
          <mxGeometry x="34" width="60" height="30" as="geometry" />
        </mxCell>
        <mxCell id="PVTimHk4dlKojtGtphxi-25" value="" style="group" vertex="1" connectable="0" parent="1">
          <mxGeometry x="-518" y="526" width="120" height="72" as="geometry" />
        </mxCell>
        <mxCell id="PVTimHk4dlKojtGtphxi-26" value="&amp;nbsp;&lt;div&gt;Save Game Progress&amp;nbsp;&lt;/div&gt;" style="rounded=1;whiteSpace=wrap;html=1;" vertex="1" parent="PVTimHk4dlKojtGtphxi-25">
          <mxGeometry width="120" height="72" as="geometry" />
        </mxCell>
        <mxCell id="PVTimHk4dlKojtGtphxi-27" value="" style="endArrow=none;html=1;rounded=0;exitX=-0.006;exitY=0.343;exitDx=0;exitDy=0;exitPerimeter=0;entryX=1;entryY=0.347;entryDx=0;entryDy=0;entryPerimeter=0;" edge="1" parent="PVTimHk4dlKojtGtphxi-25" source="PVTimHk4dlKojtGtphxi-26" target="PVTimHk4dlKojtGtphxi-26">
          <mxGeometry width="50" height="50" relative="1" as="geometry">
            <mxPoint x="156" y="45.6" as="sourcePoint" />
            <mxPoint x="121" y="24" as="targetPoint" />
          </mxGeometry>
        </mxCell>
        <mxCell id="PVTimHk4dlKojtGtphxi-28" value="7.4" style="text;html=1;align=center;verticalAlign=middle;whiteSpace=wrap;rounded=0;" vertex="1" parent="PVTimHk4dlKojtGtphxi-25">
          <mxGeometry x="26" y="-2" width="60" height="30" as="geometry" />
        </mxCell>
        <mxCell id="PVTimHk4dlKojtGtphxi-29" value="" style="group" vertex="1" connectable="0" parent="1">
          <mxGeometry x="-334" y="423" width="120" height="72" as="geometry" />
        </mxCell>
        <mxCell id="PVTimHk4dlKojtGtphxi-30" value="&lt;div&gt;&lt;br&gt;&lt;/div&gt;Display Game Victory Screen" style="rounded=1;whiteSpace=wrap;html=1;" vertex="1" parent="PVTimHk4dlKojtGtphxi-29">
          <mxGeometry width="120" height="72" as="geometry" />
        </mxCell>
        <mxCell id="PVTimHk4dlKojtGtphxi-31" value="" style="endArrow=none;html=1;rounded=0;exitX=-0.006;exitY=0.343;exitDx=0;exitDy=0;exitPerimeter=0;entryX=1;entryY=0.347;entryDx=0;entryDy=0;entryPerimeter=0;" edge="1" parent="PVTimHk4dlKojtGtphxi-29" source="PVTimHk4dlKojtGtphxi-30" target="PVTimHk4dlKojtGtphxi-30">
          <mxGeometry width="50" height="50" relative="1" as="geometry">
            <mxPoint x="156" y="45.6" as="sourcePoint" />
            <mxPoint x="121" y="24" as="targetPoint" />
          </mxGeometry>
        </mxCell>
        <mxCell id="PVTimHk4dlKojtGtphxi-32" value="7.5" style="text;html=1;align=center;verticalAlign=middle;whiteSpace=wrap;rounded=0;" vertex="1" parent="PVTimHk4dlKojtGtphxi-29">
          <mxGeometry x="26" y="-2" width="60" height="30" as="geometry" />
        </mxCell>
        <mxCell id="PVTimHk4dlKojtGtphxi-33" value="" style="group" vertex="1" connectable="0" parent="1">
          <mxGeometry x="-334" y="319" width="120" height="72" as="geometry" />
        </mxCell>
        <mxCell id="PVTimHk4dlKojtGtphxi-34" value="&lt;div&gt;&lt;br&gt;&lt;/div&gt;Display Game Over Screen" style="rounded=1;whiteSpace=wrap;html=1;" vertex="1" parent="PVTimHk4dlKojtGtphxi-33">
          <mxGeometry width="120" height="72" as="geometry" />
        </mxCell>
        <mxCell id="PVTimHk4dlKojtGtphxi-35" value="" style="endArrow=none;html=1;rounded=0;exitX=-0.006;exitY=0.343;exitDx=0;exitDy=0;exitPerimeter=0;entryX=1;entryY=0.347;entryDx=0;entryDy=0;entryPerimeter=0;" edge="1" parent="PVTimHk4dlKojtGtphxi-33" source="PVTimHk4dlKojtGtphxi-34" target="PVTimHk4dlKojtGtphxi-34">
          <mxGeometry width="50" height="50" relative="1" as="geometry">
            <mxPoint x="156" y="45.6" as="sourcePoint" />
            <mxPoint x="121" y="24" as="targetPoint" />
          </mxGeometry>
        </mxCell>
        <mxCell id="PVTimHk4dlKojtGtphxi-36" value="7.6" style="text;html=1;align=center;verticalAlign=middle;whiteSpace=wrap;rounded=0;" vertex="1" parent="PVTimHk4dlKojtGtphxi-33">
          <mxGeometry x="26" y="-2" width="60" height="30" as="geometry" />
        </mxCell>
        <mxCell id="PVTimHk4dlKojtGtphxi-39" value="" style="group" vertex="1" connectable="0" parent="1">
          <mxGeometry x="-529" y="225" width="120" height="72" as="geometry" />
        </mxCell>
        <mxCell id="PVTimHk4dlKojtGtphxi-40" value="Play Game" style="rounded=1;whiteSpace=wrap;html=1;" vertex="1" parent="PVTimHk4dlKojtGtphxi-39">
          <mxGeometry width="120" height="72" as="geometry" />
        </mxCell>
        <mxCell id="PVTimHk4dlKojtGtphxi-41" value="" style="endArrow=none;html=1;rounded=0;exitX=-0.006;exitY=0.343;exitDx=0;exitDy=0;exitPerimeter=0;entryX=1;entryY=0.347;entryDx=0;entryDy=0;entryPerimeter=0;" edge="1" parent="PVTimHk4dlKojtGtphxi-39" source="PVTimHk4dlKojtGtphxi-40" target="PVTimHk4dlKojtGtphxi-40">
          <mxGeometry width="50" height="50" relative="1" as="geometry">
            <mxPoint x="156" y="45.6" as="sourcePoint" />
            <mxPoint x="121" y="24" as="targetPoint" />
          </mxGeometry>
        </mxCell>
        <mxCell id="PVTimHk4dlKojtGtphxi-42" value="7.2" style="text;html=1;align=center;verticalAlign=middle;whiteSpace=wrap;rounded=0;" vertex="1" parent="PVTimHk4dlKojtGtphxi-39">
          <mxGeometry x="26" y="-2" width="60" height="30" as="geometry" />
        </mxCell>
        <mxCell id="PVTimHk4dlKojtGtphxi-43" style="edgeStyle=orthogonalEdgeStyle;rounded=0;orthogonalLoop=1;jettySize=auto;html=1;entryX=0;entryY=0.25;entryDx=0;entryDy=0;" edge="1" parent="1" target="PVTimHk4dlKojtGtphxi-40">
          <mxGeometry relative="1" as="geometry">
            <mxPoint x="-697" y="210.58" as="sourcePoint" />
            <mxPoint x="-566" y="210.58" as="targetPoint" />
          </mxGeometry>
        </mxCell>
        <mxCell id="PVTimHk4dlKojtGtphxi-45" value="Start New Game" style="edgeLabel;html=1;align=center;verticalAlign=middle;resizable=0;points=[];" vertex="1" connectable="0" parent="PVTimHk4dlKojtGtphxi-43">
          <mxGeometry x="-0.2945" y="2" relative="1" as="geometry">
            <mxPoint x="21" as="offset" />
          </mxGeometry>
        </mxCell>
        <mxCell id="PVTimHk4dlKojtGtphxi-65" style="edgeStyle=orthogonalEdgeStyle;rounded=0;orthogonalLoop=1;jettySize=auto;html=1;exitX=1;exitY=0.75;exitDx=0;exitDy=0;entryX=0;entryY=0;entryDx=0;entryDy=0;entryPerimeter=0;" edge="1" parent="1" source="PVTimHk4dlKojtGtphxi-7" target="PVTimHk4dlKojtGtphxi-5">
          <mxGeometry relative="1" as="geometry" />
        </mxCell>
        <mxCell id="PVTimHk4dlKojtGtphxi-66" value="Resume Game" style="edgeLabel;html=1;align=center;verticalAlign=middle;resizable=0;points=[];" vertex="1" connectable="0" parent="PVTimHk4dlKojtGtphxi-65">
          <mxGeometry x="0.0588" relative="1" as="geometry">
            <mxPoint y="17" as="offset" />
          </mxGeometry>
        </mxCell>
        <mxCell id="PVTimHk4dlKojtGtphxi-68" style="edgeStyle=orthogonalEdgeStyle;rounded=0;orthogonalLoop=1;jettySize=auto;html=1;exitX=1;exitY=0.5;exitDx=0;exitDy=0;exitPerimeter=0;entryX=0.558;entryY=0.986;entryDx=0;entryDy=0;entryPerimeter=0;" edge="1" parent="1" source="PVTimHk4dlKojtGtphxi-2" target="PVTimHk4dlKojtGtphxi-40">
          <mxGeometry relative="1" as="geometry" />
        </mxCell>
        <mxCell id="PVTimHk4dlKojtGtphxi-69" value="Resume game" style="edgeLabel;html=1;align=center;verticalAlign=middle;resizable=0;points=[];" vertex="1" connectable="0" parent="PVTimHk4dlKojtGtphxi-68">
          <mxGeometry x="-0.1867" y="4" relative="1" as="geometry">
            <mxPoint as="offset" />
          </mxGeometry>
        </mxCell>
        <mxCell id="PVTimHk4dlKojtGtphxi-70" style="edgeStyle=orthogonalEdgeStyle;rounded=0;orthogonalLoop=1;jettySize=auto;html=1;exitX=0.75;exitY=1;exitDx=0;exitDy=0;entryX=0.75;entryY=0;entryDx=0;entryDy=0;" edge="1" parent="1" source="PVTimHk4dlKojtGtphxi-40" target="PVTimHk4dlKojtGtphxi-24">
          <mxGeometry relative="1" as="geometry" />
        </mxCell>
        <mxCell id="PVTimHk4dlKojtGtphxi-71" value="Player Pauses&amp;nbsp;" style="edgeLabel;html=1;align=center;verticalAlign=middle;resizable=0;points=[];" vertex="1" connectable="0" parent="PVTimHk4dlKojtGtphxi-70">
          <mxGeometry x="-0.0707" y="-3" relative="1" as="geometry">
            <mxPoint as="offset" />
          </mxGeometry>
        </mxCell>
        <mxCell id="PVTimHk4dlKojtGtphxi-72" style="edgeStyle=orthogonalEdgeStyle;rounded=0;orthogonalLoop=1;jettySize=auto;html=1;exitX=0.5;exitY=1;exitDx=0;exitDy=0;entryX=0.65;entryY=0.2;entryDx=0;entryDy=0;entryPerimeter=0;" edge="1" parent="1" source="PVTimHk4dlKojtGtphxi-22" target="PVTimHk4dlKojtGtphxi-28">
          <mxGeometry relative="1" as="geometry" />
        </mxCell>
        <mxCell id="PVTimHk4dlKojtGtphxi-73" value="Player Saves Game" style="edgeLabel;html=1;align=center;verticalAlign=middle;resizable=0;points=[];" vertex="1" connectable="0" parent="PVTimHk4dlKojtGtphxi-72">
          <mxGeometry x="-0.0469" relative="1" as="geometry">
            <mxPoint x="1" y="1" as="offset" />
          </mxGeometry>
        </mxCell>
        <mxCell id="PVTimHk4dlKojtGtphxi-75" style="edgeStyle=orthogonalEdgeStyle;rounded=0;orthogonalLoop=1;jettySize=auto;html=1;exitX=1;exitY=0.75;exitDx=0;exitDy=0;entryX=0;entryY=0.25;entryDx=0;entryDy=0;" edge="1" parent="1" source="PVTimHk4dlKojtGtphxi-40" target="PVTimHk4dlKojtGtphxi-34">
          <mxGeometry relative="1" as="geometry">
            <Array as="points">
              <mxPoint x="-371" y="279" />
              <mxPoint x="-371" y="337" />
            </Array>
          </mxGeometry>
        </mxCell>
        <mxCell id="PVTimHk4dlKojtGtphxi-77" value="Player Loses Game" style="edgeLabel;html=1;align=center;verticalAlign=middle;resizable=0;points=[];" vertex="1" connectable="0" parent="PVTimHk4dlKojtGtphxi-75">
          <mxGeometry x="-0.4887" y="-1" relative="1" as="geometry">
            <mxPoint x="35" y="-2" as="offset" />
          </mxGeometry>
        </mxCell>
        <mxCell id="PVTimHk4dlKojtGtphxi-76" value="Player Wins&lt;div&gt;Game&lt;/div&gt;" style="edgeStyle=orthogonalEdgeStyle;rounded=0;orthogonalLoop=1;jettySize=auto;html=1;exitX=1;exitY=1;exitDx=0;exitDy=0;entryX=0;entryY=0.5;entryDx=0;entryDy=0;" edge="1" parent="1" source="PVTimHk4dlKojtGtphxi-40" target="PVTimHk4dlKojtGtphxi-30">
          <mxGeometry x="-0.1139" y="6" relative="1" as="geometry">
            <Array as="points">
              <mxPoint x="-382" y="297" />
              <mxPoint x="-382" y="459" />
            </Array>
            <mxPoint as="offset" />
          </mxGeometry>
        </mxCell>
        <mxCell id="PVTimHk4dlKojtGtphxi-78" style="edgeStyle=orthogonalEdgeStyle;rounded=0;orthogonalLoop=1;jettySize=auto;html=1;exitX=1;exitY=0.5;exitDx=0;exitDy=0;entryX=0.5;entryY=1;entryDx=0;entryDy=0;" edge="1" parent="1" source="PVTimHk4dlKojtGtphxi-34" target="PVTimHk4dlKojtGtphxi-7">
          <mxGeometry relative="1" as="geometry">
            <Array as="points">
              <mxPoint x="-169" y="355" />
              <mxPoint x="-169" y="673" />
              <mxPoint x="-760" y="673" />
            </Array>
          </mxGeometry>
        </mxCell>
        <mxCell id="PVTimHk4dlKojtGtphxi-82" value="Restart or Quit Game" style="edgeLabel;html=1;align=center;verticalAlign=middle;resizable=0;points=[];" vertex="1" connectable="0" parent="PVTimHk4dlKojtGtphxi-78">
          <mxGeometry x="0.0408" y="3" relative="1" as="geometry">
            <mxPoint as="offset" />
          </mxGeometry>
        </mxCell>
        <mxCell id="PVTimHk4dlKojtGtphxi-79" style="edgeStyle=orthogonalEdgeStyle;rounded=0;orthogonalLoop=1;jettySize=auto;html=1;exitX=1;exitY=0.25;exitDx=0;exitDy=0;entryX=0.75;entryY=1;entryDx=0;entryDy=0;" edge="1" parent="1" source="PVTimHk4dlKojtGtphxi-30" target="PVTimHk4dlKojtGtphxi-7">
          <mxGeometry relative="1" as="geometry">
            <Array as="points">
              <mxPoint x="-194" y="441" />
              <mxPoint x="-194" y="644" />
              <mxPoint x="-730" y="644" />
            </Array>
          </mxGeometry>
        </mxCell>
        <mxCell id="PVTimHk4dlKojtGtphxi-81" value="Restart or Quit Game" style="edgeLabel;html=1;align=center;verticalAlign=middle;resizable=0;points=[];" vertex="1" connectable="0" parent="PVTimHk4dlKojtGtphxi-79">
          <mxGeometry x="-0.0845" y="-5" relative="1" as="geometry">
            <mxPoint x="-1" as="offset" />
          </mxGeometry>
        </mxCell>
      </root>
    </mxGraphModel>
  </diagram>
</mxfile>
